<?xml version="1.0" encoding="UTF-8"?>
<svg id="Layer_1" data-name="Layer 1" xmlns="http://www.w3.org/2000/svg" xmlns:xlink="http://www.w3.org/1999/xlink" viewBox="0 0 742.69 102.13">
  <defs>
    <style>
      .cls-1 {
        fill: url(#linear-gradient);
      }

      .cls-2 {
        fill: #fff;
      }
    </style>
    <linearGradient id="linear-gradient" x1="736.33" y1="750.9" x2="481.49" y2="750.9" gradientTransform="translate(0 774.25) scale(1 -1)" gradientUnits="userSpaceOnUse">
      <stop offset="0" stop-color="#ff771f"/>
      <stop offset="1" stop-color="#ff32bd"/>
    </linearGradient>
  </defs>
  <g>
    <path class="cls-2" d="m67.83.05c17.59,0,27.37,7.9,27.37,23.3h0c0,15.46-9.79,23.35-27.37,23.35H27.37C9.79,46.71,0,38.81,0,23.45h0C0,7.95,9.79.05,27.37.05h40.46Zm0,36.68c11.53,0,16.38-4.46,16.38-13.28h0c0-8.91-4.84-13.42-16.38-13.42H27.37c-11.48,0-16.33,4.51-16.33,13.32h0c0,8.91,4.84,13.37,16.33,13.37h40.46Z"/>
    <path class="cls-2" d="m184.01,8.87l-55.28,26.99-5.14,2.03h60.42v8.82h-80.72v-8.82l55.28-26.99,5.14-2.03h-60.42V.05h80.72v8.82Z"/>
    <path class="cls-2" d="m268.46.05h11.58v23.4c0,15.36-9.25,23.26-27.37,23.26h-31.83c-18.12,0-27.37-7.9-27.37-23.26V.05h11.58v23.4c0,8.82,5.47,13.28,15.79,13.28h31.83c10.27,0,15.79-4.46,15.79-13.28V.05Z"/>
    <path class="cls-2" d="m374.76,46.71h-12.6l-9.35-13.76h-49.95v13.76h-11.05V.05h59.98c16.91,0,21.8,7.61,21.8,16.57h0c0,6.25-2.42,11.87-9.93,14.58l11.14,15.5h-.05Zm-71.95-36.87v13.76h48.93c7.95,0,10.71-2.42,10.71-6.88h0c0-4.46-2.76-6.88-10.71-6.88h-48.93Z"/>
    <path class="cls-2" d="m472.67,46.71h-12.74l-7.95-9.16h-50.82l-8.04,9.16h-12.69L421.22.05h10.66l40.79,46.66h0Zm-46.12-38.37l-17.78,20.45h35.61l-17.78-20.45h-.05Z"/>
    <path class="cls-1" d="m541.37.05c16.81,0,21.9,7.61,21.9,17.34h0c0,9.69-5.14,17.39-21.9,17.39h-48.84v11.92h-11.05V.05h59.88Zm10.85,17.34c0-4.7-2.62-7.36-10.85-7.36h-48.84v14.78h48.84c8.24,0,10.85-2.62,10.85-7.36h0v-.05Zm105.13,29.31h-12.74l-7.95-9.16h-50.82l-8.04,9.16h-12.69L605.91.05h10.66l40.79,46.66h0Zm-46.12-38.37l-17.78,20.45h35.61l-17.78-20.45h-.05Zm80.96,14.68l28.1-23.01h16.04l-38.37,31.2v15.46h-11.58v-15.46L648.01,0h16.04l28.1,23.01h.05Z"/>
  </g>
  <g>
    <path class="cls-2" d="m388.09,67.15c9.69,0,15.08,5.15,15.08,13.91v.04c0,8.77-5.39,13.87-15.08,13.87h-22.44v-27.82h22.44Zm-17.57,23.48h17.57c6.88,0,10.37-3.54,10.37-9.53v-.04c0-6.03-3.54-9.57-10.37-9.57h-17.57v19.14Z"/>
    <path class="cls-2" d="m445.78,94.97h-5.23l-4.06-6.39h-22.31l-4.06,6.39h-5.23l18.05-27.82h4.78l18.05,27.82Zm-20.42-23.6l-8.68,13.27h17.37l-8.68-13.27Z"/>
    <path class="cls-2" d="m478.83,74.99c-.92-2.65-3.18-4.02-7-4.02h-12.75c-3.7,0-5.63,1.33-5.63,3.54,0,1.93,1.33,3.22,4.95,3.7l16.04,1.17c6.31.76,8.48,3.94,8.48,8,0,4.58-3.34,7.84-10.21,7.84h-13.07c-6.23,0-10.25-2.33-11.5-6.43l4.22-2.25c.96,3.26,3.42,4.62,7.32,4.62h13.07c3.82,0,5.71-1.37,5.71-3.78s-1.57-3.5-4.95-3.94l-16.32-1.29c-6.03-.72-8.2-3.82-8.2-7.52,0-4.54,3.3-7.72,10.33-7.72h12.59c5.67,0,9.37,2.09,10.61,5.59l-3.7,2.49Z"/>
    <path class="cls-2" d="m520.71,78.97v-11.82h4.87v27.82h-4.87v-11.7h-27.3v11.7h-4.87v-27.82h4.87v11.82h27.3Z"/>
    <path class="cls-2" d="m568.39,87.45c0,5.23-3.9,7.52-10.29,7.52h-25.21v-27.82h23.96c6.75,0,10.25,2.29,10.25,7.32,0,3.82-1.89,5.67-5.23,6.31,4.02.56,6.51,2.41,6.51,6.67Zm-30.76-16.4v7.96h19.22c3.62,0,5.55-1.05,5.55-3.94s-1.93-4.02-5.55-4.02h-19.22Zm0,20.02h20.47c3.7,0,5.59-1.21,5.59-4.18,0-2.77-1.73-4.18-5.63-4.18h-20.42v8.36Z"/>
    <path class="cls-2" d="m599.38,66.91c9.73,0,15.28,5.27,15.28,14.11v.04c0,8.89-5.55,14.15-15.28,14.15h-11.62c-9.69,0-15.28-5.27-15.28-14.15v-.04c0-8.85,5.59-14.11,15.28-14.11h11.62Zm0,23.96c6.96,0,10.57-3.62,10.57-9.81v-.04c0-6.15-3.62-9.77-10.57-9.77h-11.62c-6.92,0-10.53,3.62-10.53,9.77v.04c0,6.19,3.62,9.81,10.53,9.81h11.62Z"/>
    <path class="cls-2" d="m657.27,94.97h-5.23l-4.06-6.39h-22.31l-4.06,6.39h-5.23l18.05-27.82h4.79l18.05,27.82Zm-20.42-23.6l-8.68,13.27h17.37l-8.68-13.27Z"/>
    <path class="cls-2" d="m697.67,94.97h-5.35l-6.27-9.05h-19.14v9.05h-4.74v-27.82h23.32c8.04,0,11.5,3.94,11.5,9.45v.04c0,4.1-1.97,7.28-6.35,8.6l7.04,9.73Zm-30.76-23.6v10.45h18.58c4.58,0,6.75-1.85,6.75-5.19v-.04c0-3.34-2.17-5.23-6.75-5.23h-18.58Z"/>
    <path class="cls-2" d="m725.57,67.15c9.69,0,15.08,5.15,15.08,13.91v.04c0,8.77-5.39,13.87-15.08,13.87h-22.44v-27.82h22.44Zm-17.57,23.48h17.57c6.88,0,10.37-3.54,10.37-9.53v-.04c0-6.03-3.54-9.57-10.37-9.57h-17.57v19.14Z"/>
  </g>
</svg>