<?xml version="1.0" encoding="UTF-8"?>
<svg id="Layer_1" data-name="Layer 1" xmlns="http://www.w3.org/2000/svg" viewBox="0 0 1271 1344.24">
  <path d="m635.5,1119.17c-165.13,0-299.47-134.34-299.47-299.47s134.34-299.47,299.47-299.47,299.47,134.34,299.47,299.47-134.34,299.47-299.47,299.47Zm0-493.83c-107.17,0-194.36,87.19-194.36,194.36s87.19,194.36,194.36,194.36,194.36-87.19,194.36-194.36-87.19-194.36-194.36-194.36Z"/>
  <path d="m635.5,1344.24c-43.51,0-104.96-26.92-230.76-226.56-100.97-160.24-304.3-242.12-306.34-242.93L0,835.79l90.51-54.86c393.02-238.19,493.3-590.63,494.27-594.17L635.92,0l50.33,186.89c.94,3.42,101.23,355.86,494.24,594.05l90.51,54.86-98.4,38.96c-1.99.79-205.87,83.5-306.34,242.93-125.8,199.64-187.25,226.56-230.76,226.56Zm-3.38-104.75h0Zm-408.45-420.05c79.55,44.55,195.86,124.55,270,242.21,87.89,139.48,130.18,170.01,141.83,176.3,11.65-6.3,53.94-36.83,141.83-176.3,74.14-117.66,190.45-197.66,270-242.21-229.64-161.41-351.78-353.21-411.84-477.09-60.05,123.89-182.19,315.69-411.83,477.09Z"/>
</svg>